<mxfile host="app.diagrams.net" modified="2021-10-07T15:36:40.781Z" agent="5.0 (Macintosh; Intel Mac OS X 10_15_7) AppleWebKit/537.36 (KHTML, like Gecko) Chrome/94.0.4606.61 Safari/537.36" etag="d_-XZFlZWk7XTEhMd6sa" version="15.3.3" type="github">
  <diagram id="dCUsB8Uncj50TgQ8yHBI" name="Page-1">
    <mxGraphModel dx="1186" dy="718" grid="1" gridSize="10" guides="1" tooltips="1" connect="1" arrows="1" fold="1" page="1" pageScale="1" pageWidth="850" pageHeight="1100" math="0" shadow="0">
      <root>
        <mxCell id="0" />
        <mxCell id="1" parent="0" />
        <mxCell id="qy2ivCTr1Uusoc0ieYXh-7" value="Auto Deploy (Upgrade)" style="swimlane;" parent="1" vertex="1">
          <mxGeometry x="80" y="220" width="560" height="420" as="geometry" />
        </mxCell>
        <mxCell id="qy2ivCTr1Uusoc0ieYXh-5" style="edgeStyle=orthogonalEdgeStyle;rounded=0;orthogonalLoop=1;jettySize=auto;html=1;" parent="qy2ivCTr1Uusoc0ieYXh-7" source="qy2ivCTr1Uusoc0ieYXh-2" edge="1">
          <mxGeometry relative="1" as="geometry">
            <mxPoint x="270" y="260" as="targetPoint" />
          </mxGeometry>
        </mxCell>
        <mxCell id="qy2ivCTr1Uusoc0ieYXh-2" value="Deliverables" style="ellipse;whiteSpace=wrap;html=1;" parent="qy2ivCTr1Uusoc0ieYXh-7" vertex="1">
          <mxGeometry x="210" y="90" width="120" height="80" as="geometry" />
        </mxCell>
        <mxCell id="qy2ivCTr1Uusoc0ieYXh-3" value="Issue Log" style="rounded=1;whiteSpace=wrap;html=1;" parent="qy2ivCTr1Uusoc0ieYXh-7" vertex="1">
          <mxGeometry x="410" y="100" width="120" height="60" as="geometry" />
        </mxCell>
        <mxCell id="qy2ivCTr1Uusoc0ieYXh-4" style="edgeStyle=orthogonalEdgeStyle;rounded=0;orthogonalLoop=1;jettySize=auto;html=1;entryX=0;entryY=0.5;entryDx=0;entryDy=0;" parent="qy2ivCTr1Uusoc0ieYXh-7" source="qy2ivCTr1Uusoc0ieYXh-2" target="qy2ivCTr1Uusoc0ieYXh-3" edge="1">
          <mxGeometry relative="1" as="geometry" />
        </mxCell>
        <mxCell id="qy2ivCTr1Uusoc0ieYXh-6" value="Change Requests" style="rounded=1;whiteSpace=wrap;html=1;" parent="qy2ivCTr1Uusoc0ieYXh-7" vertex="1">
          <mxGeometry x="210" y="260" width="120" height="60" as="geometry" />
        </mxCell>
        <mxCell id="qy2ivCTr1Uusoc0ieYXh-14" value="Data" style="ellipse;whiteSpace=wrap;html=1;aspect=fixed;dashed=1;dashPattern=1 2;" parent="1" vertex="1">
          <mxGeometry x="320" y="740" width="80" height="80" as="geometry" />
        </mxCell>
        <mxCell id="qy2ivCTr1Uusoc0ieYXh-15" value="CS" style="ellipse;whiteSpace=wrap;html=1;aspect=fixed;dashed=1;dashPattern=1 2;" parent="1" vertex="1">
          <mxGeometry x="470" y="880" width="80" height="80" as="geometry" />
        </mxCell>
        <mxCell id="qy2ivCTr1Uusoc0ieYXh-16" value="Product" style="ellipse;whiteSpace=wrap;html=1;aspect=fixed;dashed=1;dashPattern=1 2;" parent="1" vertex="1">
          <mxGeometry x="170" y="880" width="80" height="80" as="geometry" />
        </mxCell>
        <mxCell id="T7oJmVB1yCrjnzHLhoFk-7" value="Ops" style="ellipse;whiteSpace=wrap;html=1;aspect=fixed;dashed=1;dashPattern=1 2;" vertex="1" parent="1">
          <mxGeometry x="320" y="880" width="80" height="80" as="geometry" />
        </mxCell>
        <mxCell id="T7oJmVB1yCrjnzHLhoFk-8" value="Client" style="ellipse;whiteSpace=wrap;html=1;aspect=fixed;hachureGap=4;pointerEvents=0;" vertex="1" parent="1">
          <mxGeometry x="640" y="880" width="80" height="80" as="geometry" />
        </mxCell>
      </root>
    </mxGraphModel>
  </diagram>
</mxfile>
